<svg width="34" height="41" viewBox="0 0 34 41" fill="none" xmlns="http://www.w3.org/2000/svg">
<path fill-rule="evenodd" clip-rule="evenodd" d="M28.0454 10.8471V13.9142C31.4901 14.9896 34 18.1083 34 21.8334V31.7085C34 36.32 30.1773 40.059 25.4644 40.059H8.5376C3.82271 40.059 0 36.32 0 31.7085V21.8334C0 18.1083 2.51189 14.9896 5.95457 13.9142V10.8471C5.9749 4.88392 10.9133 0.0537109 16.9695 0.0537109C23.107 0.0537109 28.0454 4.88392 28.0454 10.8471ZM17.0102 3.53177C21.1357 3.53177 24.489 6.81154 24.489 10.8466V13.4824H9.51108V10.8069C9.53141 6.79166 12.8847 3.53177 17.0102 3.53177ZM18.7783 28.9679C18.7783 29.9419 17.9857 30.7171 16.9899 30.7171C16.0144 30.7171 15.2218 29.9419 15.2218 28.9679V24.5551C15.2218 23.601 16.0144 22.8258 16.9899 22.8258C17.9857 22.8258 18.7783 23.601 18.7783 24.5551V28.9679Z" fill="#FF7132"/>
</svg>
